<svg xmlns="http://www.w3.org/2000/svg" xmlns:xlink="http://www.w3.org/1999/xlink" viewBox="0 0 40.96 66.92"><defs><style>.cls-1{isolation:isolate;}.cls-10,.cls-11,.cls-12,.cls-13,.cls-14,.cls-15,.cls-16,.cls-17,.cls-18,.cls-19,.cls-2,.cls-20,.cls-21,.cls-3,.cls-4,.cls-5,.cls-6,.cls-7,.cls-8,.cls-9{mix-blend-mode:lighten;}.cls-2{fill:url(#linear-gradient);}.cls-3{fill:url(#linear-gradient-2);}.cls-4{fill:url(#linear-gradient-3);}.cls-5{fill:url(#linear-gradient-4);}.cls-6{fill:url(#linear-gradient-5);}.cls-7{fill:url(#linear-gradient-6);}.cls-8{fill:url(#linear-gradient-7);}.cls-9{fill:url(#linear-gradient-8);}.cls-10{fill:url(#linear-gradient-9);}.cls-11{fill:url(#linear-gradient-10);}.cls-12{fill:url(#linear-gradient-11);}.cls-13{fill:url(#linear-gradient-12);}.cls-14{fill:url(#linear-gradient-13);}.cls-15{fill:url(#linear-gradient-14);}.cls-16{fill:url(#linear-gradient-15);}.cls-17{fill:url(#linear-gradient-16);}.cls-18{fill:url(#linear-gradient-17);}.cls-19{fill:url(#linear-gradient-18);}.cls-20{fill:url(#linear-gradient-19);}.cls-21{fill:url(#linear-gradient-20);}</style><linearGradient id="linear-gradient" x1="4367.74" y1="3446.8" x2="4436.71" y2="3486.71" gradientTransform="translate(-3447.28 4436.77) rotate(-90)" gradientUnits="userSpaceOnUse"><stop offset="0" stop-color="#3f9cff"/><stop offset="0.42" stop-color="#39cce6"/><stop offset="0.8" stop-color="#35f1d3"/><stop offset="1" stop-color="#3fc"/></linearGradient><linearGradient id="linear-gradient-2" x1="4371.72" y1="3439.92" x2="4440.69" y2="3479.84" xlink:href="#linear-gradient"/><linearGradient id="linear-gradient-3" x1="4375.7" y1="3433.04" x2="4444.67" y2="3472.96" xlink:href="#linear-gradient"/><linearGradient id="linear-gradient-4" x1="4379.68" y1="3426.17" x2="4448.65" y2="3466.08" xlink:href="#linear-gradient"/><linearGradient id="linear-gradient-5" x1="4383.66" y1="3419.29" x2="4452.63" y2="3459.21" xlink:href="#linear-gradient"/><linearGradient id="linear-gradient-6" x1="4362.33" y1="3456.16" x2="4431.29" y2="3496.07" xlink:href="#linear-gradient"/><linearGradient id="linear-gradient-7" x1="4366.31" y1="3449.28" x2="4435.27" y2="3489.2" xlink:href="#linear-gradient"/><linearGradient id="linear-gradient-8" x1="4370.29" y1="3442.4" x2="4439.25" y2="3482.32" xlink:href="#linear-gradient"/><linearGradient id="linear-gradient-9" x1="4374.26" y1="3435.53" x2="4443.23" y2="3475.44" xlink:href="#linear-gradient"/><linearGradient id="linear-gradient-10" x1="4378.25" y1="3428.65" x2="4447.21" y2="3468.57" xlink:href="#linear-gradient"/><linearGradient id="linear-gradient-11" x1="4356.91" y1="3465.52" x2="4425.88" y2="3505.43" xlink:href="#linear-gradient"/><linearGradient id="linear-gradient-12" x1="4360.89" y1="3458.64" x2="4429.86" y2="3498.56" xlink:href="#linear-gradient"/><linearGradient id="linear-gradient-13" x1="4364.87" y1="3451.76" x2="4433.84" y2="3491.68" xlink:href="#linear-gradient"/><linearGradient id="linear-gradient-14" x1="4368.85" y1="3444.89" x2="4437.82" y2="3484.8" xlink:href="#linear-gradient"/><linearGradient id="linear-gradient-15" x1="4372.83" y1="3438.01" x2="4441.8" y2="3477.93" xlink:href="#linear-gradient"/><linearGradient id="linear-gradient-16" x1="4351.49" y1="3474.88" x2="4420.46" y2="3514.79" xlink:href="#linear-gradient"/><linearGradient id="linear-gradient-17" x1="4355.47" y1="3468" x2="4424.44" y2="3507.92" xlink:href="#linear-gradient"/><linearGradient id="linear-gradient-18" x1="4359.45" y1="3461.12" x2="4428.42" y2="3501.04" xlink:href="#linear-gradient"/><linearGradient id="linear-gradient-19" x1="4363.43" y1="3454.25" x2="4432.4" y2="3494.16" xlink:href="#linear-gradient"/><linearGradient id="linear-gradient-20" x1="4367.41" y1="3447.37" x2="4436.38" y2="3487.29" xlink:href="#linear-gradient"/></defs><g class="cls-1"><g id="Warstwa_2" data-name="Warstwa 2"><g id="BACKGROUND"><path class="cls-2" d="M1.74,63.45A1.74,1.74,0,1,1,0,65.18,1.73,1.73,0,0,1,1.74,63.45Z"/><path class="cls-3" d="M1.74,47.58A1.74,1.74,0,1,1,0,49.32,1.74,1.74,0,0,1,1.74,47.58Z"/><path class="cls-4" d="M1.74,31.72A1.74,1.74,0,1,1,0,33.46,1.74,1.74,0,0,1,1.74,31.72Z"/><path class="cls-5" d="M1.74,15.86A1.74,1.74,0,1,1,0,17.6,1.74,1.74,0,0,1,1.74,15.86Z"/><path class="cls-6" d="M1.74,0A1.74,1.74,0,1,1,0,1.74,1.74,1.74,0,0,1,1.74,0Z"/><path class="cls-7" d="M14.23,63.45a1.74,1.74,0,1,1-1.73,1.73A1.73,1.73,0,0,1,14.23,63.45Z"/><path class="cls-8" d="M14.23,47.58a1.74,1.74,0,1,1-1.73,1.74A1.74,1.74,0,0,1,14.23,47.58Z"/><path class="cls-9" d="M14.23,31.72a1.74,1.74,0,1,1-1.73,1.74A1.74,1.74,0,0,1,14.23,31.72Z"/><path class="cls-10" d="M14.23,15.86A1.74,1.74,0,1,1,12.5,17.6,1.74,1.74,0,0,1,14.23,15.86Z"/><path class="cls-11" d="M14.23,0A1.74,1.74,0,1,1,12.5,1.74,1.74,1.74,0,0,1,14.23,0Z"/><path class="cls-12" d="M26.73,63.45A1.74,1.74,0,1,1,25,65.18,1.73,1.73,0,0,1,26.73,63.45Z"/><circle class="cls-13" cx="26.73" cy="49.32" r="1.74"/><path class="cls-14" d="M26.73,31.72A1.74,1.74,0,1,1,25,33.46,1.74,1.74,0,0,1,26.73,31.72Z"/><circle class="cls-15" cx="26.73" cy="17.6" r="1.74"/><path class="cls-16" d="M26.73,0A1.74,1.74,0,1,1,25,1.74,1.74,1.74,0,0,1,26.73,0Z"/><path class="cls-17" d="M39.22,63.45a1.74,1.74,0,1,1-1.73,1.73A1.73,1.73,0,0,1,39.22,63.45Z"/><path class="cls-18" d="M39.22,47.58a1.74,1.74,0,1,1-1.73,1.74A1.73,1.73,0,0,1,39.22,47.58Z"/><path class="cls-19" d="M39.22,31.72a1.74,1.74,0,1,1-1.73,1.74A1.73,1.73,0,0,1,39.22,31.72Z"/><path class="cls-20" d="M39.22,15.86a1.74,1.74,0,1,1-1.73,1.74A1.73,1.73,0,0,1,39.22,15.86Z"/><path class="cls-21" d="M39.22,0a1.74,1.74,0,1,1-1.73,1.74A1.73,1.73,0,0,1,39.22,0Z"/></g></g></g></svg>