<?xml version="1.0" encoding="utf-8"?>
<!-- Generator: Adobe Illustrator 25.2.0, SVG Export Plug-In . SVG Version: 6.00 Build 0)  -->
<svg version="1.1" id="Warstwa_1" xmlns="http://www.w3.org/2000/svg" xmlns:xlink="http://www.w3.org/1999/xlink" x="0px" y="0px"
	 viewBox="0 0 248.9 37.8" style="enable-background:new 0 0 248.9 37.8;" xml:space="preserve">
<style type="text/css">
	.st0{fill:#48F0F9;}
	.st1{fill:#FFFFFF;}
</style>
<g>
	<path class="st0" d="M134.3,37.6c-2.6,0-5-0.5-7.3-1.5c-2.3-1-4.3-2.3-6-4c-1.7-1.7-3-3.6-4-5.9c-1-2.3-1.5-4.7-1.5-7.3
		s0.5-5,1.5-7.2c1-2.3,2.3-4.2,4-5.9c1.7-1.7,3.7-3,6-4c2.3-1,4.7-1.5,7.3-1.5s5,0.5,7.3,1.5c2.3,1,4.3,2.3,6,4c1.7,1.7,3,3.6,4,5.9
		s1.5,4.7,1.5,7.3s-0.5,5-1.5,7.3c-1,2.3-2.3,4.3-4,5.9c-1.7,1.7-3.7,3-6,4C139.3,37.1,136.9,37.6,134.3,37.6z M134.3,10
		c-1.2,0-2.3,0.2-3.4,0.7c-1,0.5-2,1.1-2.7,1.9c-0.8,0.8-1.4,1.8-1.8,2.8c-0.4,1.1-0.7,2.2-0.7,3.4c0,1.2,0.2,2.4,0.7,3.4
		c0.4,1.1,1,2,1.8,2.9s1.7,1.5,2.7,2c1,0.5,2.2,0.7,3.4,0.7s2.3-0.2,3.4-0.7c1-0.5,2-1.1,2.7-2s1.4-1.8,1.8-2.9
		c0.4-1.1,0.6-2.2,0.6-3.4c0-1.2-0.2-2.4-0.6-3.4c-0.4-1.1-1-2-1.8-2.8c-0.8-0.8-1.7-1.5-2.7-1.9C136.7,10.2,135.5,10,134.3,10z"/>
	<path class="st0" d="M181.1,37.1l-11.2-17.7v17.7h-10.3V0.6h10.1l11.2,17.8V0.6h10.3v36.5H181.1z"/>
	<path class="st0" d="M196.4,37.1V0.5h10.7v36.7H196.4z"/>
	<path class="st0" d="M239.5,34.7c-2.2,1.2-4.5,2-6.9,2.2c-2.4,0.2-4.7,0-6.9-0.6c-2.2-0.6-4.3-1.7-6.2-3.2
		c-1.9-1.5-3.5-3.3-4.7-5.4s-2-4.4-2.3-6.8c-0.3-2.4-0.2-4.7,0.4-6.9c0.6-2.2,1.6-4.3,3-6.3c1.4-1.9,3.2-3.5,5.4-4.8
		c2-1.1,4.1-1.9,6.4-2.2c2.3-0.3,4.7-0.2,7.3,0.4l-3.2,9.4c-2.2-0.2-4,0.1-5.5,0.9c-1,0.6-1.8,1.3-2.4,2.2c-0.6,0.9-1.1,1.8-1.3,2.8
		c-0.2,1-0.3,2.1-0.2,3.2c0.1,1.1,0.5,2.1,1,3.1c0.6,1,1.3,1.8,2.1,2.5c0.9,0.7,1.8,1.2,2.8,1.5c1,0.3,2,0.4,3.1,0.3
		c1.1-0.1,2.1-0.4,3.1-1c2.3-1.3,3.7-3.6,4.1-6.8l9.8,1.7c-0.5,3.1-1.5,5.7-3.1,8C243.9,31.4,241.9,33.3,239.5,34.7z"/>
</g>
<g>
	<g>
		<path class="st1" d="M108.2,2.5c-2.1-1-4.4-1.6-6.6-2c-1.4-0.2-2.8-0.4-4.2-0.4c-1.4,0-2.8,0.1-4.2,0.4c-1.4,0.3-2.6,0.8-3.8,1.5
			c-1.2,0.7-2.3,1.7-3.2,3c-0.9,1.3-1.5,2.8-1.8,4.3c-0.4,2.2-0.3,4,0.3,5.5c0.5,1.5,1.4,2.7,2.6,3.8c0.6,0.5,1.2,1,1.8,1.4
			c0.3,0.2,0.6,0.3,0.8,0.5l8.3-6.9c-0.3-0.1-0.6-0.3-0.9-0.4c-0.8-0.4-1.4-0.7-1.8-0.9c-0.4-0.3-0.7-0.6-0.8-0.9
			c-0.1-0.3-0.2-0.6-0.1-0.9c0.1-0.5,0.3-0.9,0.6-1.2c0.3-0.2,0.7-0.4,1.1-0.5c0.4-0.1,0.8-0.1,1.3,0c0.4,0.1,0.8,0.1,1.2,0.2
			c1.4,0.2,2.6,0.6,3.8,1.1l7.8-6.4C109.7,3.2,108.9,2.8,108.2,2.5z"/>
	</g>
	<path class="st0" d="M110.3,23.6c-0.3-1-0.7-2-1.3-2.8c-0.6-0.8-1.3-1.6-2.1-2.2c-0.8-0.7-1.7-1.3-2.7-1.8
		c-0.1-0.1-0.2-0.1-0.4-0.2c-2.7,2.3-5.5,4.7-8.1,7c0.2,0.1,0.5,0.2,0.7,0.3c0.6,0.2,1.2,0.5,1.7,0.9c0.2,0.1,0.4,0.2,0.6,0.4
		c0.4,0.2,0.7,0.5,1,0.9c0.3,0.3,0.4,0.7,0.3,1.2c-0.1,0.6-0.3,1.1-0.7,1.4c-0.4,0.3-0.8,0.5-1.2,0.6c-0.4,0.1-0.9,0.1-1.5,0
		c-0.3,0-0.5,0-0.7-0.1c-0.2,0-0.5-0.1-0.7-0.1c-1.5-0.3-2.9-0.7-4.3-1.3c-3,2.5-5.6,4.8-7.5,6.5c0.8,0.4,1.6,0.8,2.4,1.2
		c2.1,1,4.4,1.6,6.7,2c1.8,0.3,3.7,0.5,5.6,0.5c1.9,0,3.7-0.3,5.4-1c1.7-0.6,3.1-1.6,4.3-2.9c1.2-1.3,2-3.2,2.4-5.5
		c0.1-0.8,0.2-1.6,0.2-2.4C110.6,25.1,110.5,24.3,110.3,23.6z"/>
</g>
<g>
	<path class="st1" d="M25.9,31.2h-13l-2,6H0L14.4,0.5h9.9L39,37.1H27.9L25.9,31.2z M19.3,11.9l-4,11.4h8.1L19.3,11.9z"/>
	<path class="st1" d="M78.5,18.8c0,10.7-7.9,18.4-18.9,18.4H44.7V0.5h14.9C70.7,0.5,78.5,8,78.5,18.8z M68.2,18.8
		c0-5.4-3.6-9.1-9.1-9.1h-4.2v18.2h4.2C64.5,27.9,68.2,24.2,68.2,18.8z"/>
</g>
</svg>
